<?xml version="1.0" encoding="iso-8859-1"?>
<!-- Generator: Adobe Illustrator 19.0.0, SVG Export Plug-In . SVG Version: 6.00 Build 0)  -->
<svg version="1.1" id="Layer_1" xmlns="http://www.w3.org/2000/svg" xmlns:xlink="http://www.w3.org/1999/xlink" x="0px" y="0px" 
	 viewBox="0 0 512 512"  xml:space="preserve">
<g>
	<g>
		<path d="M512,140.8H409.6v-38.4H320h-38.4v203.858l-76.209-37.905C236.141,244.974,256,208.009,256,166.4
			c0-70.693-57.307-128-128-128S0,95.707,0,166.4c0,41.873,20.108,79.048,51.192,102.4C20.108,292.152,0,329.326,0,371.2v64h38.4
			v38.4h64v-38.4h51.2v38.4h64v-76.8H38.4v-38.4h179.2v-26.793l64,31.832V473.6H320v-192h51.2V320H512l-25.6-89.6L512,140.8z
			 M54.533,217.6C44.38,203.075,38.4,185.427,38.4,166.4c0-19.027,5.98-36.675,16.133-51.2h146.932
			c10.154,14.525,16.134,32.173,16.134,51.2c0,19.027-5.98,36.675-16.133,51.2H54.533z M449.477,240.95l11.616,40.65H409.6V179.2
			h51.493l-11.615,40.65l-3.014,10.55L449.477,240.95z" fill="#be2424"/>
	</g>
</g>
<g>
</g>
<g>
</g>
<g>
</g>
<g>
</g>
<g>
</g>
<g>
</g>
<g>
</g>
<g>
</g>
<g>
</g>
<g>
</g>
<g>
</g>
<g>
</g>
<g>
</g>
<g>
</g>
<g>
</g>
</svg>
