<svg id="Layer_1" enable-background="new 0 0 512 512" height="512" viewBox="0 0 512 512" width="512" xmlns="http://www.w3.org/2000/svg"><path d="m461.82 145.503h-411.64c-27.67 0-50.18 22.557-50.18 50.289v88.333c0 6.898 4.69 12.905 11.37 14.577l185.75 46.354v-42.64c0-16.589 13.43-30.035 30-30.035h57.76c16.57 0 30 13.446 30 30.035v42.64l185.75-46.354c6.68-1.672 11.37-7.679 11.37-14.577v-88.333c0-27.732-22.51-50.289-50.18-50.289z" fill="#ffffff"/><path d="m314.88 386.124c0 9.851-4.83 19.072-12.91 24.679l-28.88 20.053c-5.14 3.564-11.11 5.346-17.09 5.346s-11.95-1.782-17.09-5.346l-28.88-20.053c-8.08-5.606-12.91-14.827-12.91-24.679v-10.122l-177.12-44.202v129.921c0 27.723 22.51 50.279 50.18 50.279h371.64c27.67 0 50.18-22.556 50.18-50.279v-129.921l-177.12 44.201z" fill="#ffffff"/><path d="m284.877 386.123v-83.708h-57.754v83.708l28.877 20.048z" fill="#ffffff"/><path d="m189.088 102.292c0-14.667-8.688-27.338-21.177-33.118 2.1-21.932 20.578-39.139 42.989-39.139h97.408c22.411 0 40.889 17.207 42.989 39.139-12.49 5.78-21.178 18.451-21.178 33.118v12.175h72.755v-12.175c0-14.794-8.839-27.558-21.503-33.267-2.239-38.44-34.154-69.025-73.063-69.025h-97.408c-38.909 0-70.824 30.585-73.063 69.025-12.664 5.709-21.504 18.473-21.504 33.267v12.175h72.755z" fill="#ffffff"/></svg>